<svg width="22" height="20" viewBox="0 0 22 20" fill="none" xmlns="http://www.w3.org/2000/svg">
<path d="M18.377 2H16.232V1C16.232 0.734784 16.119 0.48043 15.9179 0.292893C15.7168 0.105357 15.444 0 15.1595 0C14.8751 0 14.6023 0.105357 14.4012 0.292893C14.2 0.48043 14.087 0.734784 14.087 1V2H7.65203V1C7.65203 0.734784 7.53904 0.48043 7.3379 0.292893C7.13677 0.105357 6.86398 0 6.57953 0C6.29509 0 6.02229 0.105357 5.82116 0.292893C5.62003 0.48043 5.50703 0.734784 5.50703 1V2H3.36203C2.5087 2 1.69031 2.31607 1.08692 2.87868C0.483517 3.44129 0.144531 4.20435 0.144531 5V17C0.144531 17.7956 0.483517 18.5587 1.08692 19.1213C1.69031 19.6839 2.5087 20 3.36203 20H18.377C19.2304 20 20.0487 19.6839 20.6521 19.1213C21.2555 18.5587 21.5945 17.7956 21.5945 17V5C21.5945 4.20435 21.2555 3.44129 20.6521 2.87868C20.0487 2.31607 19.2304 2 18.377 2ZM19.4495 17C19.4495 17.2652 19.3365 17.5196 19.1354 17.7071C18.9343 17.8946 18.6615 18 18.377 18H3.36203C3.07759 18 2.80479 17.8946 2.60366 17.7071C2.40253 17.5196 2.28953 17.2652 2.28953 17V10H19.4495V17ZM19.4495 8H2.28953V5C2.28953 4.73478 2.40253 4.48043 2.60366 4.29289C2.80479 4.10536 3.07759 4 3.36203 4H5.50703V5C5.50703 5.26522 5.62003 5.51957 5.82116 5.70711C6.02229 5.89464 6.29509 6 6.57953 6C6.86398 6 7.13677 5.89464 7.3379 5.70711C7.53904 5.51957 7.65203 5.26522 7.65203 5V4H14.087V5C14.087 5.26522 14.2 5.51957 14.4012 5.70711C14.6023 5.89464 14.8751 6 15.1595 6C15.444 6 15.7168 5.89464 15.9179 5.70711C16.119 5.51957 16.232 5.26522 16.232 5V4H18.377C18.6615 4 18.9343 4.10536 19.1354 4.29289C19.3365 4.48043 19.4495 4.73478 19.4495 5V8Z" fill="#7D7D7D"/>
</svg>
