<svg width="20" height="20" viewBox="0 0 20 20" fill="none" xmlns="http://www.w3.org/2000/svg">
<path d="M9.715 8C11.5382 8 12.9969 6.65 12.9969 5C12.9969 3.35 11.5382 2 9.715 2C7.89175 2 6.43315 3.35 6.43315 5C6.43315 6.65 7.89175 8 9.715 8ZM9.715 10C6.712 10 4.28815 7.76 4.28815 5C4.28815 2.24 6.712 0 9.715 0C12.718 0 15.1419 2.24 15.1419 5C15.1419 7.76 12.718 10 9.715 10ZM2.2075 18H17.2225V16.67C17.2225 14.92 14.745 13.11 9.715 13.11C4.68497 13.11 2.2075 14.92 2.2075 16.67V18ZM9.715 11.11C16.8578 11.11 19.3675 14.44 19.3675 16.67V20H0.0625V16.67C0.0625 14.44 2.57215 11.11 9.715 11.11Z" fill="#7D7D7D"/>
</svg>
